<svg width="13" height="18" viewBox="0 0 13 18" fill="none" xmlns="http://www.w3.org/2000/svg">
<path d="M8.36091 18C7.7357 17.988 7.11947 17.8736 6.54742 17.6634C5.97537 17.4532 5.45872 17.1513 5.02697 16.775C4.59522 16.3987 4.25685 15.9552 4.03118 15.4701C3.8055 14.9849 3.69696 14.4675 3.71175 13.9474V5.71886C3.71175 5.10507 4.00486 4.51642 4.5266 4.08241C5.04834 3.6484 5.75597 3.40457 6.49382 3.40457C7.23168 3.40457 7.93931 3.6484 8.46105 4.08241C8.98279 4.51642 9.2759 5.10507 9.2759 5.71886V12.8571C9.2759 13.0617 9.1782 13.258 9.00428 13.4026C8.83037 13.5473 8.59449 13.6286 8.34854 13.6286C8.10259 13.6286 7.86671 13.5473 7.6928 13.4026C7.51889 13.258 7.42118 13.0617 7.42118 12.8571V5.69829C7.42118 5.49369 7.32348 5.29747 7.14956 5.1528C6.97565 5.00813 6.73977 4.92686 6.49382 4.92686C6.24787 4.92686 6.012 5.00813 5.83808 5.1528C5.66417 5.29747 5.56646 5.49369 5.56646 5.69829V13.9269C5.54988 14.243 5.60839 14.5588 5.73867 14.8561C5.86894 15.1534 6.06841 15.4264 6.32567 15.6595C6.58293 15.8926 6.89292 16.0812 7.23791 16.2146C7.58289 16.3479 7.9561 16.4233 8.33618 16.4366C8.71785 16.4246 9.09295 16.3502 9.44003 16.2176C9.78711 16.085 10.0993 15.8967 10.3589 15.6636C10.6184 15.4306 10.8202 15.1572 10.9526 14.8592C11.085 14.5611 11.1455 14.2443 11.1306 13.9269V5.69829C11.1642 4.64463 10.6978 3.62234 9.83245 2.85243C8.96708 2.08252 7.77221 1.62687 6.50619 1.584C5.2369 1.62424 4.03763 2.07839 3.16765 2.84828C2.29767 3.61818 1.82687 4.64195 1.85703 5.69829V11.7463C1.85703 11.9509 1.75933 12.1471 1.58541 12.2918C1.4115 12.4364 1.17562 12.5177 0.929671 12.5177C0.683721 12.5177 0.447843 12.4364 0.27393 12.2918C0.100016 12.1471 0.00231272 11.9509 0.00231272 11.7463V5.69829C-0.0442301 4.22679 0.613318 2.80011 1.8305 1.73166C3.04769 0.663209 4.72495 0.0403797 6.49382 0C7.37075 0.018667 8.23466 0.180894 9.03618 0.477409C9.83771 0.773925 10.5611 1.19892 11.1651 1.7281C11.7691 2.25729 12.2419 2.88029 12.5563 3.56151C12.8707 4.24274 13.0207 4.96882 12.9977 5.69829V13.9269C13.0158 14.4478 12.9101 14.9666 12.6867 15.4535C12.4633 15.9403 12.1266 16.3858 11.6958 16.7642C11.265 17.1426 10.7487 17.4465 10.1764 17.6586C9.60415 17.8707 8.98719 17.9867 8.36091 18Z" fill="#222224"/>
</svg>
