<svg width="100" height="100" viewBox="0 0 100 100" fill="none" xmlns="http://www.w3.org/2000/svg">
<path d="M100 50C100 56.6559 98.6177 64.8913 94.5 68.0641C89.3574 72.0268 80.788 70.4754 75 75.5641C70.4175 79.5931 71.2585 89.8006 67.5 95.0641C64.0367 99.9142 56.0643 100 50 100C22.3858 100 0 77.6143 0 50C0 22.3858 22.3858 1.52588e-05 50 1.52588e-05C77.6142 1.52588e-05 100 22.3858 100 50Z" fill="#C7C9D1"/>
<ellipse cx="50" cy="35.5001" rx="10" ry="11.5" fill="#F4F4F6"/>
<path d="M28 65.9995V71.9995H72V66.9995C72 66.5001 65.5 54.4674 49 54.9995C32.5 55.5316 27.9999 65.5001 28 65.9995Z" fill="#F4F4F6" stroke="#F4F4F6"/>
</svg>
