<svg width="23" height="19" viewBox="0 0 23 19" fill="none" xmlns="http://www.w3.org/2000/svg">
<path d="M15 13.2743V17.973C15 18.5378 14.6 19 14.05 19H1C0.45 19 0 18.5378 0 17.973V1.02703C0 0.462162 0.45 0 1 0H14.05C14.6 0 15 0.462162 15 1.02703V5.72568C15 6.29054 14.55 6.7527 14 6.7527C13.45 6.7527 13 6.29054 13 5.72568V2.05405H2V16.9459H13V13.2743C13 12.7095 13.45 12.2473 14 12.2473C14.55 12.2473 15 12.7095 15 13.2743ZM22.7 8.72973L18.8 4.67297C18.4 4.26216 17.775 4.26216 17.375 4.67297C16.975 5.08378 16.975 5.72568 17.375 6.13649L19.6 8.4473L7.475 8.47297C6.925 8.47297 6.475 8.93513 6.475 9.5C6.475 10.0649 6.925 10.527 7.475 10.527L19.6 10.5014L17.375 12.8122C16.975 13.223 17 13.8649 17.375 14.2757C17.575 14.4811 17.825 14.5838 18.075 14.5838C18.325 14.5838 18.6 14.4811 18.775 14.2757L22.7 10.2189C23.1 9.78243 23.1 9.14054 22.7 8.72973Z" fill="white"/>
</svg>
