<svg width="154" height="34" viewBox="0 0 154 34" fill="none" xmlns="http://www.w3.org/2000/svg">
<path d="M2.36 28.84C1.72 28.84 1.2 28.6934 0.8 28.4C0.426667 28.1067 0.2 27.72 0.12 27.24C0.04 26.7334 0.133333 26.1734 0.4 25.56L10.96 2.16002C11.3067 1.38669 11.72 0.840018 12.2 0.520018C12.7067 0.173351 13.28 1.71661e-05 13.92 1.71661e-05C14.5333 1.71661e-05 15.08 0.173351 15.56 0.520018C16.0667 0.840018 16.4933 1.38669 16.84 2.16002L27.44 25.56C27.7333 26.1734 27.84 26.7334 27.76 27.24C27.68 27.7467 27.4533 28.1467 27.08 28.44C26.7067 28.7067 26.2133 28.84 25.6 28.84C24.8533 28.84 24.2667 28.6667 23.84 28.32C23.44 27.9467 23.08 27.3867 22.76 26.64L20.16 20.6L22.32 22H5.44L7.6 20.6L5.04 26.64C4.69333 27.4134 4.33333 27.9734 3.96 28.32C3.58667 28.6667 3.05333 28.84 2.36 28.84ZM13.84 5.88002L8.24 19.2L7.2 17.92H20.56L19.56 19.2L13.92 5.88002H13.84ZM31.6516 22.852C31.2703 22.852 30.9496 22.7307 30.6896 22.488C30.447 22.228 30.3256 21.916 30.3256 21.552C30.3256 21.1707 30.447 20.8587 30.6896 20.616C30.9496 20.3734 31.2703 20.252 31.6516 20.252H37.1896C37.5536 20.252 37.857 20.3734 38.0996 20.616C38.3596 20.8587 38.4896 21.1707 38.4896 21.552C38.4896 21.916 38.3596 22.228 38.0996 22.488C37.857 22.7307 37.5536 22.852 37.1896 22.852H31.6516ZM43.5231 28.728C43.0031 28.728 42.5957 28.5894 42.3011 28.312C42.0237 28.0174 41.8851 27.6014 41.8851 27.064V17.288C41.8851 16.7507 42.0237 16.3434 42.3011 16.066C42.5957 15.7714 43.0031 15.624 43.5231 15.624C44.0431 15.624 44.4417 15.7714 44.7191 16.066C44.9964 16.3434 45.1351 16.7507 45.1351 17.288V20.746H46.9811L50.2311 16.378C50.4737 16.0487 50.7511 15.8407 51.0631 15.754C51.3751 15.65 51.6697 15.6414 51.9471 15.728C52.2417 15.8147 52.4757 15.9707 52.6491 16.196C52.8397 16.4214 52.9351 16.69 52.9351 17.002C52.9524 17.2967 52.8397 17.6087 52.5971 17.938L49.5031 22.176L48.8011 21.136C49.2691 21.188 49.6851 21.318 50.0491 21.526C50.4304 21.734 50.7771 22.0287 51.0891 22.41C51.4184 22.774 51.7391 23.2334 52.0511 23.788L53.5851 26.518C53.7931 26.882 53.8624 27.22 53.7931 27.532C53.7411 27.8267 53.5937 28.078 53.3511 28.286C53.1257 28.494 52.8571 28.624 52.5451 28.676C52.2331 28.728 51.9211 28.6847 51.6091 28.546C51.3144 28.4247 51.0631 28.182 50.8551 27.818L49.1131 24.776C48.8877 24.3774 48.6624 24.074 48.4371 23.866C48.2291 23.6407 47.9864 23.4847 47.7091 23.398C47.4491 23.3114 47.1284 23.268 46.7471 23.268H45.1351V27.064C45.1351 27.6014 44.9964 28.0174 44.7191 28.312C44.4417 28.5894 44.0431 28.728 43.5231 28.728ZM62.2325 28.78C60.9152 28.78 59.7712 28.5114 58.8005 27.974C57.8298 27.4367 57.0758 26.674 56.5385 25.686C56.0012 24.6807 55.7325 23.502 55.7325 22.15C55.7325 21.1274 55.8798 20.2174 56.1745 19.42C56.4865 18.6054 56.9285 17.912 57.5005 17.34C58.0725 16.7507 58.7572 16.3087 59.5545 16.014C60.3518 15.702 61.2445 15.546 62.2325 15.546C63.5498 15.546 64.6938 15.8147 65.6645 16.352C66.6352 16.8894 67.3892 17.652 67.9265 18.64C68.4638 19.628 68.7325 20.798 68.7325 22.15C68.7325 23.1727 68.5765 24.0914 68.2645 24.906C67.9698 25.7207 67.5365 26.4227 66.9645 27.012C66.3925 27.584 65.7078 28.026 64.9105 28.338C64.1132 28.6327 63.2205 28.78 62.2325 28.78ZM62.2325 26.31C62.8738 26.31 63.4372 26.154 63.9225 25.842C64.4078 25.53 64.7805 25.0707 65.0405 24.464C65.3178 23.84 65.4565 23.0687 65.4565 22.15C65.4565 20.7634 65.1618 19.732 64.5725 19.056C63.9832 18.3627 63.2032 18.016 62.2325 18.016C61.5912 18.016 61.0278 18.172 60.5425 18.484C60.0572 18.7787 59.6758 19.238 59.3985 19.862C59.1385 20.4687 59.0085 21.2314 59.0085 22.15C59.0085 23.5194 59.3032 24.5594 59.8925 25.27C60.4818 25.9634 61.2618 26.31 62.2325 26.31ZM73.1744 28.728C72.7238 28.728 72.3684 28.598 72.1084 28.338C71.8658 28.0607 71.7444 27.6794 71.7444 27.194V17.366C71.7444 16.9847 71.7964 16.664 71.9004 16.404C72.0044 16.144 72.1691 15.9447 72.3944 15.806C72.6198 15.6674 72.8971 15.598 73.2264 15.598C73.5558 15.598 73.8244 15.6587 74.0324 15.78C74.2578 15.884 74.4484 16.0227 74.6044 16.196C74.7604 16.3694 74.8904 16.56 74.9944 16.768L78.8164 23.32L82.6384 16.768C82.7598 16.5427 82.8898 16.3434 83.0284 16.17C83.1844 15.9967 83.3664 15.858 83.5744 15.754C83.7998 15.65 84.0684 15.598 84.3804 15.598C84.8831 15.598 85.2558 15.754 85.4984 16.066C85.7411 16.3607 85.8624 16.794 85.8624 17.366V27.194C85.8624 27.6794 85.7411 28.0607 85.4984 28.338C85.2558 28.598 84.9004 28.728 84.4324 28.728C83.9818 28.728 83.6264 28.598 83.3664 28.338C83.1238 28.0607 83.0024 27.6794 83.0024 27.194V19.55H83.6264L79.9084 25.894C79.8218 26.05 79.6918 26.206 79.5184 26.362C79.3624 26.5007 79.1284 26.57 78.8164 26.57C78.4871 26.57 78.2444 26.492 78.0884 26.336C77.9324 26.18 77.8111 26.0327 77.7244 25.894L73.9804 19.55H74.6044V27.194C74.6044 27.6794 74.4831 28.0607 74.2404 28.338C73.9978 28.598 73.6424 28.728 73.1744 28.728ZM98.5913 33.408C98.0713 33.408 97.6726 33.2607 97.3953 32.966C97.1179 32.6714 96.9793 32.2467 96.9793 31.692V26.102H97.2393C96.9619 26.9514 96.5113 27.61 95.8873 28.078C95.2633 28.546 94.5093 28.78 93.6253 28.78C92.6893 28.78 91.8659 28.5114 91.1553 27.974C90.4446 27.4194 89.8813 26.648 89.4653 25.66C89.0666 24.6547 88.8673 23.4847 88.8673 22.15C88.8673 20.798 89.0666 19.628 89.4653 18.64C89.8813 17.652 90.4446 16.8894 91.1553 16.352C91.8659 15.8147 92.6893 15.546 93.6253 15.546C94.5266 15.546 95.2893 15.78 95.9133 16.248C96.5373 16.716 96.9793 17.3747 97.2393 18.224H96.9793V11.698C96.9793 11.1434 97.1179 10.7187 97.3953 10.424C97.6726 10.1294 98.0713 9.98202 98.5913 9.98202C99.1113 9.98202 99.5099 10.1294 99.7873 10.424C100.082 10.7187 100.229 11.1434 100.229 11.698V18.224H99.9433C100.203 17.3747 100.645 16.716 101.269 16.248C101.911 15.78 102.673 15.546 103.557 15.546C104.493 15.546 105.317 15.8147 106.027 16.352C106.755 16.8894 107.319 17.652 107.717 18.64C108.116 19.628 108.315 20.798 108.315 22.15C108.315 23.4847 108.116 24.6547 107.717 25.66C107.319 26.648 106.764 27.4194 106.053 27.974C105.343 28.5114 104.511 28.78 103.557 28.78C102.691 28.78 101.945 28.546 101.321 28.078C100.697 27.61 100.238 26.9514 99.9433 26.102H100.229V31.692C100.229 32.2467 100.091 32.6714 99.8133 32.966C99.5359 33.2607 99.1286 33.408 98.5913 33.408ZM94.5873 26.336C95.0899 26.336 95.5233 26.1887 95.8873 25.894C96.2513 25.582 96.5286 25.114 96.7193 24.49C96.9273 23.866 97.0313 23.086 97.0313 22.15C97.0313 20.746 96.8059 19.706 96.3553 19.03C95.9046 18.3367 95.3153 17.99 94.5873 17.99C94.1019 17.99 93.6686 18.146 93.2873 18.458C92.9233 18.7527 92.6373 19.212 92.4293 19.836C92.2213 20.4427 92.1173 21.214 92.1173 22.15C92.1173 23.086 92.2126 23.866 92.4033 24.49C92.6113 25.114 92.8973 25.582 93.2613 25.894C93.6426 26.1887 94.0846 26.336 94.5873 26.336ZM102.595 26.336C103.098 26.336 103.531 26.1887 103.895 25.894C104.277 25.582 104.563 25.114 104.753 24.49C104.961 23.866 105.065 23.086 105.065 22.15C105.065 21.214 104.961 20.4427 104.753 19.836C104.545 19.212 104.259 18.7527 103.895 18.458C103.531 18.146 103.098 17.99 102.595 17.99C102.11 17.99 101.685 18.146 101.321 18.458C100.957 18.7527 100.671 19.212 100.463 19.836C100.273 20.4427 100.177 21.214 100.177 22.15C100.177 23.5714 100.394 24.6287 100.827 25.322C101.261 25.998 101.85 26.336 102.595 26.336ZM117.152 28.78C115.835 28.78 114.691 28.5114 113.72 27.974C112.75 27.4367 111.996 26.674 111.458 25.686C110.921 24.6807 110.652 23.502 110.652 22.15C110.652 21.1274 110.8 20.2174 111.094 19.42C111.406 18.6054 111.848 17.912 112.42 17.34C112.992 16.7507 113.677 16.3087 114.474 16.014C115.272 15.702 116.164 15.546 117.152 15.546C118.47 15.546 119.614 15.8147 120.584 16.352C121.555 16.8894 122.309 17.652 122.846 18.64C123.384 19.628 123.652 20.798 123.652 22.15C123.652 23.1727 123.496 24.0914 123.184 24.906C122.89 25.7207 122.456 26.4227 121.884 27.012C121.312 27.584 120.628 28.026 119.83 28.338C119.033 28.6327 118.14 28.78 117.152 28.78ZM117.152 26.31C117.794 26.31 118.357 26.154 118.842 25.842C119.328 25.53 119.7 25.0707 119.96 24.464C120.238 23.84 120.376 23.0687 120.376 22.15C120.376 20.7634 120.082 19.732 119.492 19.056C118.903 18.3627 118.123 18.016 117.152 18.016C116.511 18.016 115.948 18.172 115.462 18.484C114.977 18.7787 114.596 19.238 114.318 19.862C114.058 20.4687 113.928 21.2314 113.928 22.15C113.928 23.5194 114.223 24.5594 114.812 25.27C115.402 25.9634 116.182 26.31 117.152 26.31ZM128.302 33.408C127.782 33.408 127.384 33.2694 127.106 32.992C126.829 32.7147 126.69 32.3074 126.69 31.77V17.236C126.69 16.6987 126.829 16.2914 127.106 16.014C127.384 15.7367 127.774 15.598 128.276 15.598C128.796 15.598 129.195 15.7367 129.472 16.014C129.75 16.2914 129.888 16.6987 129.888 17.236V19.264L129.602 18.484C129.862 17.6 130.391 16.8894 131.188 16.352C132.003 15.8147 132.948 15.546 134.022 15.546C135.132 15.546 136.102 15.8147 136.934 16.352C137.784 16.8894 138.442 17.652 138.91 18.64C139.378 19.6107 139.612 20.7807 139.612 22.15C139.612 23.502 139.378 24.6807 138.91 25.686C138.442 26.674 137.792 27.4367 136.96 27.974C136.128 28.5114 135.149 28.78 134.022 28.78C132.965 28.78 132.038 28.52 131.24 28C130.443 27.4627 129.906 26.7694 129.628 25.92H129.94V31.77C129.94 32.3074 129.793 32.7147 129.498 32.992C129.221 33.2694 128.822 33.408 128.302 33.408ZM133.112 26.31C133.754 26.31 134.317 26.154 134.802 25.842C135.288 25.53 135.66 25.0707 135.92 24.464C136.198 23.84 136.336 23.0687 136.336 22.15C136.336 20.7634 136.042 19.732 135.452 19.056C134.863 18.3627 134.083 18.016 133.112 18.016C132.471 18.016 131.908 18.172 131.422 18.484C130.937 18.7787 130.556 19.238 130.278 19.862C130.018 20.4687 129.888 21.2314 129.888 22.15C129.888 23.5194 130.183 24.5594 130.772 25.27C131.362 25.9634 132.142 26.31 133.112 26.31ZM146.951 28.728C146.431 28.728 146.024 28.5894 145.729 28.312C145.452 28.0174 145.313 27.6014 145.313 27.064V18.354H142.141C141.205 18.354 140.737 17.9294 140.737 17.08C140.737 16.6814 140.858 16.3694 141.101 16.144C141.361 15.9187 141.708 15.806 142.141 15.806H151.735C152.671 15.806 153.139 16.2307 153.139 17.08C153.139 17.496 153.018 17.8167 152.775 18.042C152.532 18.25 152.186 18.354 151.735 18.354H148.563V27.064C148.563 27.6014 148.424 28.0174 148.147 28.312C147.887 28.5894 147.488 28.728 146.951 28.728Z" fill="#DC4433"/>
</svg>
